<svg xmlns="http://www.w3.org/2000/svg" version="1.1" xmlns:xlink="http://www.w3.org/1999/xlink" xmlns:svgjs="http://svgjs.dev/svgjs" width="1500" height="549" viewBox="0 0 1500 549"><g transform="matrix(1,0,0,1,-0.9090909090909918,-1.7421152791413874)"><svg viewBox="0 0 396 145" data-background-color="#444444" preserveAspectRatio="xMidYMid meet" height="549" width="1500" xmlns="http://www.w3.org/2000/svg" xmlns:xlink="http://www.w3.org/1999/xlink"><g id="tight-bounds" transform="matrix(1,0,0,1,0.2400000000000091,0.46012152181329213)"><svg viewBox="0 0 395.52 144.07975695637342" height="144.07975695637342" width="395.52"><g><svg viewBox="0 0 395.52 144.07975695637342" height="144.07975695637342" width="395.52"><g transform="matrix(1,0,0,1,0,87.55519299171725)"><svg viewBox="0 0 395.52 56.52456396465617" height="56.52456396465617" width="395.52"><g id="textblocktransform"><svg viewBox="0 0 395.52 56.52456396465617" height="56.52456396465617" width="395.52" id="textblock"><g><svg viewBox="0 0 395.52 56.52456396465617" height="56.52456396465617" width="395.52"><g transform="matrix(1,0,0,1,0,0)"><svg width="395.52" viewBox="0.95 -36.95 260.28000000000003 37.2" height="56.52456396465617" data-palette-color="#ffffff"><path d="M32-33.7L20.65 0 12.15 0 0.95-33.7 9.25-33.7 13.3-20.25Q14.4-16.65 15.2-13.33 16-10 16.25-8.5L16.25-8.5 16.5-6.95Q17.3-12.15 19.75-20.25L19.75-20.25 23.8-33.7 32-33.7ZM55.85-7.55L55.85-1.45Q53.25 0.25 47.9 0.25L47.9 0.25Q41.65 0.25 38.17-3.38 34.7-7 34.7-12.7L34.7-12.7Q34.7-18.75 38.07-22.18 41.45-25.6 46.4-25.6L46.4-25.6Q51.5-25.6 54.45-22.63 57.4-19.65 57.4-13.75L57.4-13.75Q57.4-12.6 57-9.8L57-9.8 42.1-9.8Q42.85-7.7 44.7-6.55 46.55-5.4 49.15-5.4L49.15-5.4Q53-5.4 55.85-7.55L55.85-7.55ZM46.7-20.05L46.7-20.05Q44.95-20.05 43.6-18.78 42.25-17.5 41.8-15L41.8-15 50.6-15 50.6-15.6Q50.25-20.05 46.7-20.05ZM69.85-12.65L69.85 0 62.55 0 62.6-25.35 69.85-25.35 69.85-20.65Q70.55-22.85 72.17-24.18 73.8-25.5 75.95-25.5L75.95-25.5Q77.15-25.5 77.85-25.3L77.85-25.3 77.85-18.4Q76.65-18.95 75.1-18.95L75.1-18.95Q72.75-18.95 71.3-17.23 69.85-15.5 69.85-12.65L69.85-12.65ZM95.89-6.6L95.89-0.55Q94.04 0.25 90.89 0.25L90.89 0.25Q82.24 0.25 82.24-8.4L82.24-8.4 82.24-20 78.59-20 78.59-25.35 82.24-25.35 82.24-31.35 89.54-31.35 89.54-25.35 95.44-25.35 95.44-20 89.54-20 89.54-8.35Q89.54-7 90.32-6.3 91.09-5.6 92.34-5.6L92.34-5.6Q94.34-5.6 95.89-6.6L95.89-6.6ZM120.29-7.55L120.29-1.45Q117.69 0.25 112.34 0.25L112.34 0.25Q106.09 0.25 102.62-3.38 99.14-7 99.14-12.7L99.14-12.7Q99.14-18.75 102.52-22.18 105.89-25.6 110.84-25.6L110.84-25.6Q115.94-25.6 118.89-22.63 121.84-19.65 121.84-13.75L121.84-13.75Q121.84-12.6 121.44-9.8L121.44-9.8 106.54-9.8Q107.29-7.7 109.14-6.55 110.99-5.4 113.59-5.4L113.59-5.4Q117.44-5.4 120.29-7.55L120.29-7.55ZM111.14-20.05L111.14-20.05Q109.39-20.05 108.04-18.78 106.69-17.5 106.24-15L106.24-15 115.04-15 115.04-15.6Q114.69-20.05 111.14-20.05ZM137.29-7.6L132.74 0 124.84 0 133.89-12.7 125.39-25.35 133.49-25.35 137.59-17.8 142.14-25.35 150.14-25.35 141.04-12.65 149.49 0 141.54 0 137.29-7.6ZM182.34-33.7L170.99 0 162.49 0 151.29-33.7 159.59-33.7 163.64-20.25Q164.74-16.65 165.54-13.33 166.34-10 166.59-8.5L166.59-8.5 166.84-6.95Q167.64-12.15 170.09-20.25L170.09-20.25 174.14-33.7 182.34-33.7ZM193.83-25.35L193.83 0 186.53 0 186.53-25.35 193.83-25.35ZM193.18-35.7Q194.43-34.45 194.43-32.7 194.43-30.95 193.18-29.7 191.93-28.45 190.18-28.45 188.43-28.45 187.18-29.7 185.93-30.95 185.93-32.7 185.93-34.45 187.18-35.7 188.43-36.95 190.18-36.95 191.93-36.95 193.18-35.7ZM217.38-7.65L217.38-7.65Q217.38-3.9 214.68-1.85 211.98 0.2 207.53 0.2L207.53 0.2Q202.93 0.2 199.83-1.35L199.83-1.35 199.83-7.85Q203.28-5.45 207.13-5.45L207.13-5.45Q209.88-5.45 209.88-7.2L209.88-7.2Q209.88-7.65 209.63-8.05 209.38-8.45 208.78-8.8 208.18-9.15 207.68-9.38 207.18-9.6 206.23-10 205.28-10.4 204.78-10.65L204.78-10.65Q199.73-13.05 199.73-17.85L199.73-17.85Q199.73-21.55 202.56-23.6 205.38-25.65 209.58-25.65L209.58-25.65Q213.48-25.65 216.08-24.6L216.08-24.6 216.08-18.35Q213.43-19.9 209.88-19.9L209.88-19.9Q208.58-19.9 207.88-19.38 207.18-18.85 207.18-18.05L207.18-18.05Q207.18-17.6 207.43-17.2 207.68-16.8 208.26-16.45 208.83-16.1 209.36-15.83 209.88-15.55 210.81-15.15 211.73-14.75 212.28-14.45L212.28-14.45Q214.58-13.25 215.98-11.68 217.38-10.1 217.38-7.65ZM236.68-6.6L236.68-0.55Q234.83 0.25 231.68 0.25L231.68 0.25Q223.03 0.25 223.03-8.4L223.03-8.4 223.03-20 219.38-20 219.38-25.35 223.03-25.35 223.03-31.35 230.33-31.35 230.33-25.35 236.23-25.35 236.23-20 230.33-20 230.33-8.35Q230.33-7 231.1-6.3 231.88-5.6 233.13-5.6L233.13-5.6Q235.13-5.6 236.68-6.6L236.68-6.6ZM250.48-5L250.48-5Q252.03-5 252.88-5.95 253.73-6.9 253.73-8.55L253.73-8.55 253.73-10.4 251.38-10.4Q249.53-10.4 248.53-9.6 247.53-8.8 247.53-7.55L247.53-7.55Q247.53-5 250.48-5ZM254.08 0L254.08-3.1Q252.48 0.15 247.78 0.15L247.78 0.15Q244.08 0.15 242-1.95 239.93-4.05 239.93-7.2L239.93-7.2Q239.93-10.85 242.6-12.88 245.28-14.9 250.53-14.9L250.53-14.9 253.73-14.9 253.73-16.65Q253.73-19.85 249.48-19.85L249.48-19.85Q245.38-19.85 241.88-17.55L241.88-17.55 241.88-24.1Q244.88-25.8 250.53-25.8L250.53-25.8Q255.93-25.8 258.58-23.48 261.23-21.15 261.23-16.25L261.23-16.25 261.23 0 254.08 0Z" opacity="1" transform="matrix(1,0,0,1,0,0)" fill="#ffffff" class="wordmark-text-0" data-fill-palette-color="primary" id="text-0"></path></svg></g></svg></g></svg></g></svg></g><g transform="matrix(1,0,0,1,155.642791282131,0)"><svg viewBox="0 0 84.234417435738 74.21110002919708" height="74.21110002919708" width="84.234417435738"><g><svg xmlns="http://www.w3.org/2000/svg" xmlns:xlink="http://www.w3.org/1999/xlink" version="1.1" x="0" y="0" viewBox="6.3 11.5 87.4 77" style="enable-background:new 0 0 100 100;" xml:space="preserve" height="74.21110002919708" width="84.234417435738" class="icon-icon-0" data-fill-palette-color="accent" id="icon-0"><path d="M72.3 12.3L71.9 11.5H28.2L6.3 50 28.1 88.5H71.8L93.7 50zM33.3 25.3L9.9 47.7 28.5 14.9zM70.7 14.8L77.1 50.5 36.9 25.8zM35.5 27.3L76.5 52.5 35.5 75.8zM77 54.5L69.8 85.3 37.2 77.2zM33.5 75L9.9 50.5 33.5 27.8zM33.2 77.6L28.6 85.3 11.5 55.1zM35 78.6L66.4 86.5H30.2zM79.3 53.3L90.9 50.8 72.1 84zM90.7 48.9L79.3 51.4 73.4 18.3zM35 24.3L30 13.5H68.2z" fill="#00d1cd" data-fill-palette-color="accent"></path></svg></g></svg></g><g></g></svg></g><defs></defs></svg><rect width="395.52" height="144.07975695637342" fill="none" stroke="none" visibility="hidden"></rect></g></svg></g></svg>